<svg 
 xmlns="http://www.w3.org/2000/svg"
 xmlns:xlink="http://www.w3.org/1999/xlink"
 width="598.5px" height="139.5px">
<defs>
<linearGradient id="PSgrad_0" x1="0%" x2="0%" y1="100%" y2="0%">
  <stop offset="0%" stop-color="rgb(255,222,86)" stop-opacity="0" />
  <stop offset="100%" stop-color="rgb(251,230,142)" stop-opacity="1" />
</linearGradient>

</defs>
<path fill-rule="evenodd"  opacity="0.722" fill="rgb(255, 255, 255)"
 d="M15.999,0.0 C15.999,0.0 7.23,0.47 49.249,0.122 C59.972,0.141 68.676,19.162 81.166,19.184 C244.394,19.473 580.999,19.999 580.999,19.999 C589.836,19.999 596.999,27.163 596.999,35.999 L596.999,121.999 C596.999,130.836 589.836,137.999 580.999,137.999 L15.999,137.999 C7.163,137.999 0.0,130.836 0.0,121.999 L0.0,15.999 C0.0,7.163 7.163,0.0 15.999,0.0 Z"/>
<path fill-rule="evenodd"  fill="rgb(68, 138, 202)"
 d="M73.153,19.215 C73.486,19.216 73.468,19.216 73.150,19.217 C63.642,22.940 61.841,37.392 52.499,37.408 C10.273,37.483 4.249,37.531 4.249,37.531 L4.249,16.31 C4.247,8.934 9.769,4.197 15.369,4.207 C21.233,4.218 38.483,3.925 47.999,4.0 C57.333,4.16 59.625,14.593 69.122,18.333 C71.908,19.376 70.775,19.216 73.153,19.215 Z"/>
<path fill-rule="evenodd"  opacity="0.122" fill="rgb(0, 0, 0)"
 d="M21.515,46.999 L498.515,46.999 C505.143,46.999 510.515,52.372 510.515,58.999 L510.515,116.0 C510.515,122.627 505.143,128.0 498.515,128.0 L21.515,128.0 C14.888,128.0 9.515,122.627 9.515,116.0 L9.515,58.999 C9.515,52.372 14.888,46.999 21.515,46.999 Z"/>
<path fill-rule="evenodd"  fill="rgb(249, 218, 91)"
 d="M532.515,46.0 L574.515,46.0 C581.143,46.0 586.515,51.372 586.515,57.999 L586.515,116.0 C586.515,122.627 581.143,127.999 574.515,127.999 L532.515,127.999 C525.888,127.999 520.515,122.627 520.515,116.0 L520.515,57.999 C520.515,51.372 525.888,46.0 532.515,46.0 Z"/>
<path fill="url(#PSgrad_0)"
 d="M532.515,46.0 L574.515,46.0 C581.143,46.0 586.515,51.372 586.515,57.999 L586.515,116.0 C586.515,122.627 581.143,127.999 574.515,127.999 L532.515,127.999 C525.888,127.999 520.515,122.627 520.515,116.0 L520.515,57.999 C520.515,51.372 525.888,46.0 532.515,46.0 Z"/>
<path fill-rule="evenodd"  stroke="rgb(68, 138, 202)" stroke-width="3px" stroke-linecap="butt" stroke-linejoin="miter" fill="rgb(255, 255, 255)"
 d="M21.524,9.0 L42.637,9.0 C45.136,9.0 47.161,11.25 47.161,13.524 L47.161,31.809 L17.0,31.809 L17.0,13.524 C17.0,11.25 19.25,9.0 21.524,9.0 Z"/>
<path fill-rule="evenodd"  stroke="rgb(68, 138, 202)" stroke-width="2px" stroke-linecap="butt" stroke-linejoin="miter" fill="none"
 d="M17.377,20.499 L46.596,20.499 L17.377,20.499 Z"/>
<path fill-rule="evenodd"  stroke="rgb(68, 138, 202)" stroke-width="2px" stroke-linecap="butt" stroke-linejoin="miter" fill="rgb(255, 255, 255)"
 d="M28.989,16.728 L34.795,16.728 C35.482,16.728 36.39,17.398 36.39,18.224 L36.39,24.269 L27.745,24.269 L27.745,18.224 C27.745,17.398 28.302,16.728 28.989,16.728 Z"/>
<path fill-rule="evenodd"  stroke="rgb(68, 138, 202)" stroke-width="2px" stroke-linecap="butt" stroke-linejoin="miter" fill="none"
 d="M24.32,10.131 L24.32,31.244 L24.32,10.131 Z"/>
<path fill-rule="evenodd"  stroke="rgb(68, 138, 202)" stroke-width="2px" stroke-linecap="butt" stroke-linejoin="miter" fill="none"
 d="M40.506,10.131 L40.506,31.244 L40.506,10.131 Z"/>
<path fill-rule="evenodd"  fill="rgb(255, 255, 255)"
 d="M557.700,71.661 L557.700,75.9 C556.812,75.897 555.528,76.341 553.848,76.341 C551.616,76.341 549.834,75.616 548.502,74.163 C547.170,72.711 546.504,70.725 546.504,68.205 C546.504,66.549 546.804,65.115 547.404,63.903 C548.4,62.692 548.820,61.761 549.852,61.113 C550.884,60.465 552.36,60.141 553.308,60.141 C554.556,60.141 555.630,60.453 556.530,61.77 C557.430,61.702 558.132,62.577 558.636,63.705 L563.748,60.753 C563.364,59.601 562.698,58.557 561.750,57.621 C560.802,56.685 559.614,55.942 558.186,55.389 C556.758,54.837 555.168,54.561 553.416,54.561 C550.920,54.561 548.664,55.119 546.648,56.235 C544.632,57.351 543.42,58.948 541.878,61.23 C540.714,63.99 540.132,65.493 540.132,68.205 C540.132,70.869 540.690,73.240 541.806,75.315 C542.922,77.391 544.494,79.5 546.522,80.157 C548.550,81.309 550.872,81.885 553.488,81.885 C555.720,81.885 557.766,81.483 559.626,80.679 C561.486,79.875 562.836,78.766 563.676,77.349 L563.676,66.405 L553.20,66.405 L553.20,71.661 L557.700,71.661 Z"/>
<path fill-rule="evenodd"  stroke="rgb(255, 255, 255)" stroke-width="1px" stroke-linecap="butt" stroke-linejoin="miter" fill="none"
 d="M530.999,90.0 L577.0,90.0 L530.999,90.0 Z"/>
</svg>