<svg 
 xmlns="http://www.w3.org/2000/svg"
 xmlns:xlink="http://www.w3.org/1999/xlink"
 width="133.4px" height="53.4px">
<path fill-rule="evenodd"  fill="#dc704c"
 d="M26.335,4.164 C38.119,4.164 47.671,13.716 47.671,25.500 C47.671,37.283 38.119,46.836 26.335,46.836 C14.552,46.836 4.999,37.283 4.999,25.500 C4.999,13.716 14.552,4.164 26.335,4.164 Z"/>
<path fill-rule="evenodd"  stroke="rgb(255, 255, 255)" stroke-width="2.8px" stroke-linecap="butt" stroke-linejoin="miter" fill="none"
 d="M26.312,12.597 C26.312,12.597 29.167,13.769 31.325,15.909 C33.641,18.205 35.272,21.594 35.272,25.197 C35.272,28.706 33.624,32.370 31.364,34.655 C29.144,36.900 26.312,38.217 26.312,38.217 C26.312,38.217 23.487,36.801 21.427,34.816 C19.32,32.508 17.352,28.938 17.352,25.197 C17.352,21.674 19.228,18.70 21.495,15.783 C23.707,13.552 26.312,12.597 26.312,12.597 Z"/>
<path fill-rule="evenodd"  fill="rgb(255, 255, 255)"
 d="M26.312,24.216 C26.312,24.216 26.981,24.597 27.487,25.293 C28.30,26.40 28.412,27.141 28.412,28.313 C28.412,29.454 28.26,30.645 27.496,31.388 C26.976,32.118 26.312,32.546 26.312,32.546 C26.312,32.546 25.650,32.85 25.167,31.440 C24.606,30.690 24.212,29.529 24.212,28.313 C24.212,27.167 24.652,25.995 25.183,25.252 C25.702,24.527 26.312,24.216 26.312,24.216 Z"/>
</svg>